solid Untitled-5e53f98a
facet normal 0.0 0.0 1.0
  outer loop
    vertex 0.8384859999999998 5.999999999999997 10.000000000000009
    vertex 0.0 13.999999999999996 10.000000000000009
    vertex 0.0 5.999999999999997 10.000000000000009
  endloop
endfacet
facet normal -0.02617678167342076 0.0035681014974321404 0.9996509614625129
  outer loop
    vertex 8.37375299887106 0.0 10.219274439268192
    vertex 0.2708623749541349 1.9871366489474198 10.000000000000009
    vertex 1.4099832412739487e-15 0.0 10.000000000000002
  endloop
endfacet
facet normal -0.027230180980532037 -0.0005276144180488399 0.9996290506316798
  outer loop
    vertex 8.37375299887106 0.0 10.219274439268192
    vertex 1.3984995463352985 13.933905122689438 10.03662099943489
    vertex 0.8513966573003364 1.9595668682676899 10.015397582428738
  endloop
endfacet
facet normal 0.02603947880135069 -0.0006550590312815356 0.9996607006586883
  outer loop
    vertex 16.74750599774212 14.0 10.000000000000034
    vertex 15.814029930149873 14.196023569160053 10.024443931092712
    vertex 15.908036445949291 6.067620677128233 10.01666882860589
  endloop
endfacet
facet normal -1.6740152091839467e-16 -3.5249581031848783e-15 1.0
  outer loop
    vertex 0.2708623749541349 1.9871366489474198 10.000000000000009
    vertex 0.0 1.9999999999999962 10.000000000000009
    vertex 1.4099832412739487e-15 0.0 10.000000000000002
  endloop
endfacet
facet normal -1.3778621198769958e-30 -4.934941344458823e-15 1.0
  outer loop
    vertex 16.74750599774212 1.9999999999999991 10.000000000000034
    vertex 15.921799997742118 1.9999999999999991 10.000000000000034
    vertex 16.74750599774212 0.0 10.000000000000023
  endloop
endfacet
facet normal -0.08029160560564648 -0.9967714171610599 2.41004270104615e-16
  outer loop
    vertex 16.74750599774212 6.0 9.000000000000034
    vertex 16.535776050796176 6.017055201526051 10.000000000000034
    vertex 15.908036445949291 6.067620677128233 10.01666882860589
  endloop
endfacet
facet normal -0.08029160560564648 -0.9967714171610599 2.41004270104615e-16
  outer loop
    vertex 16.535776050796176 6.017055201526051 10.000000000000034
    vertex 16.74750599774212 6.0 9.000000000000034
    vertex 16.74750599774212 6.0 10.000000000000034
  endloop
endfacet
facet normal -0.026176948307874245 1.9691163807410403e-16 0.9996573249755573
  outer loop
    vertex 8.37375299887106 20.0 10.2192744392682
    vertex 1.4099832412739487e-15 20.0 10.000000000000009
    vertex 1.3984995463352985 17.494151122689438 10.03662099943489
  endloop
endfacet
facet normal 0.0 1.0 0.0
  outer loop
    vertex 16.74750599774212 1.9999999999999962 1.000000000000013
    vertex 16.74750599774212 1.9999999999999962 1.3590282009749718e-14
    vertex 15.962915040463669 1.9999999999999962 1.3590282009749718e-14
  endloop
endfacet
facet normal -0.026176948307873087 -5.4862747849590284e-17 0.9996573249755575
  outer loop
    vertex 8.37375299887106 0.0 10.219274439268192
    vertex 1.3984995463352985 17.494151122689438 10.03662099943489
    vertex 1.3984995463352985 13.933905122689438 10.03662099943489
  endloop
endfacet
facet normal 2.802280373181217e-31 1.0 1.3966186148820416e-16
  outer loop
    vertex 1.4099832412739487e-15 20.0 10.000000000000009
    vertex 0.7845909572783131 20.000000000000004 0.03082666266871788
    vertex 1.4099832412739487e-15 20.0 7.950349044653923e-15
  endloop
endfacet
facet normal 2.802280373181217e-31 1.0 1.3966186148820416e-16
  outer loop
    vertex 0.7845909572783131 20.000000000000004 0.03082666266871788
    vertex 1.4099832412739487e-15 20.0 10.000000000000009
    vertex 15.962915040463669 20.000000000000004 0.030826662668750313
  endloop
endfacet
facet normal 2.802280373181217e-31 1.0 1.3966186148820416e-16
  outer loop
    vertex 15.962915040463669 20.000000000000004 0.030826662668750313
    vertex 16.74750599774212 20.0 10.00000000000003
    vertex 16.74750599774212 20.0 3.05100809050371e-14
  endloop
endfacet
facet normal 2.802280373181217e-31 1.0 1.3966186148820416e-16
  outer loop
    vertex 16.74750599774212 20.0 10.00000000000003
    vertex 15.962915040463669 20.000000000000004 0.030826662668750313
    vertex 1.4099832412739487e-15 20.0 10.000000000000009
  endloop
endfacet
facet normal 2.802280373181217e-31 1.0 1.3966186148820416e-16
  outer loop
    vertex 16.74750599774212 20.0 10.00000000000003
    vertex 1.4099832412739487e-15 20.0 10.000000000000009
    vertex 8.37375299887106 20.0 10.2192744392682
  endloop
endfacet
facet normal -0.11347426196256041 0.003423645404948255 0.9935350373913311
  outer loop
    vertex 1.3984995463352985 13.933905122689438 10.03662099943489
    vertex 0.8384859999999998 5.999999999999997 10.000000000000009
    vertex 0.8513966573003364 1.9595668682676899 10.015397582428738
  endloop
endfacet
facet normal -0.6087614290087207 -0.7933533402912352 -7.985989462321021e-16
  outer loop
    vertex 9.230050781186545 10.707106781186544 1.7307467573234103e-15
    vertex 9.022943999999988 10.866025403784434 10.202274774629212
    vertex 9.022943999999997 10.866025403784436 1.6085757088492882e-15
  endloop
endfacet
facet normal -0.6087614290087207 -0.7933533402912352 -7.985989462321021e-16
  outer loop
    vertex 9.022943999999988 10.866025403784434 10.202274774629212
    vertex 9.230050781186545 10.707106781186544 1.7307467573234103e-15
    vertex 9.230050781186536 10.707106781186543 10.196851492700613
  endloop
endfacet
facet normal 0.7933533402912354 -0.6087614290087204 4.707548988953056e-16
  outer loop
    vertex 7.65691859621556 10.499999999999998 3.351713769417019e-16
    vertex 7.815837218813441 10.707106781186543 10.204664900409394
    vertex 7.656918596215551 10.499999999999996 10.200503469822165
  endloop
endfacet
facet normal 0.7933533402912354 -0.6087614290087204 4.707548988953056e-16
  outer loop
    vertex 7.815837218813441 10.707106781186543 10.204664900409394
    vertex 7.65691859621556 10.499999999999998 3.351713769417019e-16
    vertex 7.815837218813449 10.707106781186546 5.377130557233995e-16
  endloop
endfacet
facet normal 0.0 1.0 0.0
  outer loop
    vertex 16.74750599774212 1.9999999999999991 10.000000000000034
    vertex 16.74750599774212 1.9999999999999991 9.000000000000034
    vertex 15.921799997742118 1.9999999999999991 10.000000000000034
  endloop
endfacet
facet normal 0.0 0.0 1.0
  outer loop
    vertex 16.74750599774212 14.0 10.000000000000034
    vertex 16.535776050796176 6.017055201526051 10.000000000000034
    vertex 16.74750599774212 6.0 10.000000000000034
  endloop
endfacet
facet normal 0.0 -1.0 0.0
  outer loop
    vertex 0.0 17.999999999999996 1.000000000000006
    vertex 0.0 17.999999999999996 6.540365803379974e-15
    vertex 0.8086280000000003 17.999999999999996 6.540365803379974e-15
  endloop
endfacet
facet normal -0.6087614290087205 0.7933533402912353 -2.5143705564900364e-16
  outer loop
    vertex 9.022943999999988 9.133974596215557 10.202274774629212
    vertex 9.230050781186545 9.29289321881345 1.2631526208449597e-15
    vertex 9.022943999999997 9.133974596215559 1.0358921883045267e-15
  endloop
endfacet
facet normal -0.6087614290087205 0.7933533402912353 -2.5143705564900364e-16
  outer loop
    vertex 9.230050781186545 9.29289321881345 1.2631526208449597e-15
    vertex 9.022943999999988 9.133974596215557 10.202274774629212
    vertex 9.230050781186536 9.292893218813449 10.196851492700615
  endloop
endfacet
facet normal 0.9238795325112868 0.38268343236508945 9.0260217496204e-16
  outer loop
    vertex 7.656918596215558 9.499999999999998 4.532392194721013e-18
    vertex 7.557018173710921 9.741180954897475 10.19788748519373
    vertex 7.65691859621555 9.499999999999996 10.200503469822165
  endloop
endfacet
facet normal 0.9238795325112868 0.38268343236508945 9.0260217496204e-16
  outer loop
    vertex 7.557018173710921 9.741180954897475 10.19788748519373
    vertex 7.656918596215558 9.499999999999998 4.532392194721013e-18
    vertex 7.557018173710929 9.741180954897477 0.0
  endloop
endfacet
facet normal 0.7933533402912355 0.6087614290087201 8.551293363107785e-16
  outer loop
    vertex 7.815837218813449 9.29289321881345 7.011891924494888e-17
    vertex 7.65691859621555 9.499999999999996 10.200503469822165
    vertex 7.815837218813441 9.292893218813449 10.204664900409396
  endloop
endfacet
facet normal 0.7933533402912355 0.6087614290087201 8.551293363107785e-16
  outer loop
    vertex 7.65691859621555 9.499999999999996 10.200503469822165
    vertex 7.815837218813449 9.29289321881345 7.011891924494888e-17
    vertex 7.656918596215558 9.499999999999998 4.532392194721013e-18
  endloop
endfacet
facet normal -0.13052619222005232 0.9914448613738105 2.022652597121699e-16
  outer loop
    vertex 8.522943999999988 8.999999999999995 10.215367735413805
    vertex 8.781763045102517 9.03407417371093 7.994004249173675e-16
    vertex 8.522943999999997 8.999999999999998 5.697938535371991e-16
  endloop
endfacet
facet normal -0.13052619222005232 0.9914448613738105 2.022652597121699e-16
  outer loop
    vertex 8.781763045102517 9.03407417371093 7.994004249173675e-16
    vertex 8.522943999999988 8.999999999999995 10.215367735413805
    vertex 8.78176304510251 9.034074173710929 10.20859032019814
  endloop
endfacet
facet normal 0.9914448613738105 -0.13052619222005166 8.050644150687128e-16
  outer loop
    vertex 7.522943999999998 9.999999999999998 5.683061769872386e-17
    vertex 7.557018173710921 10.258819045102516 10.197887485193728
    vertex 7.522943999999989 9.999999999999996 10.196995221553399
  endloop
endfacet
facet normal 0.9914448613738105 -0.13052619222005166 8.050644150687128e-16
  outer loop
    vertex 7.557018173710921 10.258819045102516 10.197887485193728
    vertex 7.522943999999998 9.999999999999998 5.683061769872386e-17
    vertex 7.557018173710929 10.25881904510252 1.7115133261176126e-16
  endloop
endfacet
facet normal 0.13052619222005193 0.9914448613738105 4.259210939105214e-16
  outer loop
    vertex 8.264124954897467 9.034074173710927 10.216403727906918
    vertex 8.522943999999997 8.999999999999998 5.697938535371991e-16
    vertex 8.264124954897476 9.03407417371093 3.6271978256077995e-16
  endloop
endfacet
facet normal 0.13052619222005193 0.9914448613738105 4.259210939105214e-16
  outer loop
    vertex 8.522943999999997 8.999999999999998 5.697938535371991e-16
    vertex 8.264124954897467 9.034074173710927 10.216403727906918
    vertex 8.522943999999988 8.999999999999995 10.215367735413805
  endloop
endfacet
facet normal 0.13052619222005193 0.9914448613738105 4.259210939105214e-16
  outer loop
    vertex 8.522943999999988 8.999999999999995 10.215367735413805
    vertex 8.264124954897467 9.034074173710927 10.216403727906918
    vertex 8.37375299887106 9.019641367916183 10.219274439268196
  endloop
endfacet
facet normal 0.6087614290087201 -0.7933533402912357 2.613142594576122e-16
  outer loop
    vertex 8.022943999999999 10.866025403784437 7.649734882638332e-16
    vertex 7.815837218813441 10.707106781186543 10.204664900409394
    vertex 7.815837218813449 10.707106781186546 5.377130557233995e-16
  endloop
endfacet
facet normal 0.6087614290087201 -0.7933533402912357 2.613142594576122e-16
  outer loop
    vertex 7.815837218813441 10.707106781186543 10.204664900409394
    vertex 8.022943999999999 10.866025403784437 7.649734882638332e-16
    vertex 8.02294399999999 10.866025403784436 10.210088182337993
  endloop
endfacet
facet normal -0.38268343236509056 -0.9238795325112865 -6.427418492522141e-16
  outer loop
    vertex 9.022943999999997 10.866025403784436 1.6085757088492882e-15
    vertex 8.78176304510251 10.965925826289064 10.20859032019814
    vertex 8.781763045102519 10.965925826289066 1.4381458940075795e-15
  endloop
endfacet
facet normal -0.38268343236509056 -0.9238795325112865 -6.427418492522141e-16
  outer loop
    vertex 8.78176304510251 10.965925826289064 10.20859032019814
    vertex 9.022943999999997 10.866025403784436 1.6085757088492882e-15
    vertex 9.022943999999988 10.866025403784434 10.202274774629212
  endloop
endfacet
facet normal -0.9238795325112868 0.38268343236508945 -6.624379646283642e-16
  outer loop
    vertex 9.488869826289056 9.741180954897475 10.190074077484947
    vertex 9.388969403784436 9.499999999999998 1.4656942996266574e-15
    vertex 9.388969403784428 9.499999999999995 10.192690062113384
  endloop
endfacet
facet normal -0.9238795325112868 0.38268343236508945 -6.624379646283642e-16
  outer loop
    vertex 9.388969403784436 9.499999999999998 1.4656942996266574e-15
    vertex 9.488869826289056 9.741180954897475 10.190074077484947
    vertex 9.488869826289065 9.741180954897477 1.6297143439565982e-15
  endloop
endfacet
facet normal 0.0 1.0 0.0
  outer loop
    vertex 0.0 13.999999999999996 1.000000000000006
    vertex 0.8086280000000003 13.999999999999996 6.540365803379974e-15
    vertex 0.0 13.999999999999996 6.540365803379974e-15
  endloop
endfacet
facet normal 0.3826834323650903 0.9238795325112867 6.180746565527162e-16
  outer loop
    vertex 8.022943999999988 9.133974596215557 10.210088182337993
    vertex 8.264124954897476 9.03407417371093 3.6271978256077995e-16
    vertex 8.022943999999997 9.133974596215559 1.9228996771907106e-16
  endloop
endfacet
facet normal 0.3826834323650903 0.9238795325112867 6.180746565527162e-16
  outer loop
    vertex 8.264124954897476 9.03407417371093 3.6271978256077995e-16
    vertex 8.022943999999988 9.133974596215557 10.210088182337993
    vertex 8.264124954897467 9.034074173710927 10.216403727906918
  endloop
endfacet
facet normal 0.7867474911560757 9.13656598576234e-18 -0.6172749672225666
  outer loop
    vertex 15.962915040463669 18.031927999999997 1.7820231733571566e-14
    vertex 16.74750599774212 13.999999999999996 1.0000000000000173
    vertex 15.962915040463669 13.999999999999996 1.7820231733571566e-14
  endloop
endfacet
facet normal 0.7867474911560757 9.13656598576234e-18 -0.6172749672225666
  outer loop
    vertex 16.74750599774212 13.999999999999996 1.0000000000000173
    vertex 15.962915040463669 18.031927999999997 1.7820231733571566e-14
    vertex 16.74750599774212 17.999999999999996 1.0000000000000173
  endloop
endfacet
facet normal 0.3826834323650892 -0.9238795325112871 3.2681548446956674e-17
  outer loop
    vertex 8.264124954897477 10.965925826289066 1.001465251650992e-15
    vertex 8.02294399999999 10.866025403784436 10.210088182337993
    vertex 8.022943999999999 10.866025403784437 7.649734882638332e-16
  endloop
endfacet
facet normal 0.3826834323650892 -0.9238795325112871 3.2681548446956674e-17
  outer loop
    vertex 8.02294399999999 10.866025403784436 10.210088182337993
    vertex 8.264124954897477 10.965925826289066 1.001465251650992e-15
    vertex 8.264124954897468 10.965925826289064 10.21640372790692
  endloop
endfacet
facet normal -0.9238795325112873 -0.38268343236508884 -9.042215664454082e-16
  outer loop
    vertex 9.388969403784428 10.499999999999996 10.192690062113384
    vertex 9.488869826289065 10.258819045102518 1.8008656765683592e-15
    vertex 9.488869826289056 10.258819045102516 10.19007407748495
  endloop
endfacet
facet normal -0.9238795325112873 -0.38268343236508884 -9.042215664454082e-16
  outer loop
    vertex 9.488869826289065 10.258819045102518 1.8008656765683592e-15
    vertex 9.388969403784428 10.499999999999996 10.192690062113384
    vertex 9.388969403784436 10.499999999999998 1.796333284373638e-15
  endloop
endfacet
facet normal -0.9914448613738105 -0.13052619222005116 -8.989992154402739e-16
  outer loop
    vertex 9.488869826289056 10.258819045102516 10.19007407748495
    vertex 9.522943999999997 9.999999999999998 1.7440350588696352e-15
    vertex 9.522943999999988 9.999999999999995 10.18918181384462
  endloop
endfacet
facet normal -0.9914448613738105 -0.13052619222005116 -8.989992154402739e-16
  outer loop
    vertex 9.522943999999997 9.999999999999998 1.7440350588696352e-15
    vertex 9.488869826289056 10.258819045102516 10.19007407748495
    vertex 9.488869826289065 10.258819045102518 1.8008656765683592e-15
  endloop
endfacet
facet normal -2.8209737745219087e-31 -1.0 -1.3966186148820416e-16
  outer loop
    vertex 16.74750599774212 0.0 10.000000000000023
    vertex 15.962915040463669 2.8199664825478975e-15 0.030826662668743263
    vertex 16.74750599774212 0.0 2.3460164698667356e-14
  endloop
endfacet
facet normal -2.8209737745219087e-31 -1.0 -1.3966186148820416e-16
  outer loop
    vertex 15.962915040463669 2.8199664825478975e-15 0.030826662668743263
    vertex 16.74750599774212 0.0 10.000000000000023
    vertex 1.4099832412739487e-15 0.0 10.000000000000002
  endloop
endfacet
facet normal -2.8209737745219087e-31 -1.0 -1.3966186148820416e-16
  outer loop
    vertex 1.4099832412739487e-15 0.0 10.000000000000002
    vertex 16.74750599774212 0.0 10.000000000000023
    vertex 8.37375299887106 0.0 10.219274439268192
  endloop
endfacet
facet normal -2.8209737745219087e-31 -1.0 -1.3966186148820416e-16
  outer loop
    vertex 0.7845909572783131 2.8199664825478975e-15 0.03082666266871083
    vertex 1.4099832412739487e-15 0.0 10.000000000000002
    vertex 1.4099832412739487e-15 0.0 9.004328382841796e-16
  endloop
endfacet
facet normal -2.8209737745219087e-31 -1.0 -1.3966186148820416e-16
  outer loop
    vertex 1.4099832412739487e-15 0.0 10.000000000000002
    vertex 0.7845909572783131 2.8199664825478975e-15 0.03082666266871083
    vertex 15.962915040463669 2.8199664825478975e-15 0.030826662668743263
  endloop
endfacet
facet normal -0.1305261922200525 -0.9914448613738103 -4.4225240208062113e-16
  outer loop
    vertex 8.781763045102519 10.965925826289066 1.4381458940075795e-15
    vertex 8.522943999999988 10.999999999999995 10.215367735413803
    vertex 8.522943999999997 10.999999999999998 1.2310718230311601e-15
  endloop
endfacet
facet normal -0.1305261922200525 -0.9914448613738103 -4.4225240208062113e-16
  outer loop
    vertex 8.522943999999988 10.999999999999995 10.215367735413803
    vertex 8.781763045102519 10.965925826289066 1.4381458940075795e-15
    vertex 8.78176304510251 10.965925826289064 10.20859032019814
  endloop
endfacet
facet normal 0.6087614290087209 0.7933533402912352 7.771245310342352e-16
  outer loop
    vertex 7.815837218813441 9.292893218813449 10.204664900409396
    vertex 8.022943999999997 9.133974596215559 1.9228996771907106e-16
    vertex 7.815837218813449 9.29289321881345 7.011891924494888e-17
  endloop
endfacet
facet normal 0.6087614290087209 0.7933533402912352 7.771245310342352e-16
  outer loop
    vertex 8.022943999999997 9.133974596215559 1.9228996771907106e-16
    vertex 7.815837218813441 9.292893218813449 10.204664900409396
    vertex 8.022943999999988 9.133974596215557 10.210088182337993
  endloop
endfacet
facet normal -0.9914448613738105 0.13052619222005168 -8.149422115206325e-16
  outer loop
    vertex 9.522943999999988 9.999999999999995 10.18918181384462
    vertex 9.488869826289065 9.741180954897477 1.6297143439565982e-15
    vertex 9.488869826289056 9.741180954897475 10.190074077484947
  endloop
endfacet
facet normal -0.9914448613738105 0.13052619222005168 -8.149422115206325e-16
  outer loop
    vertex 9.488869826289065 9.741180954897477 1.6297143439565982e-15
    vertex 9.522943999999988 9.999999999999995 10.18918181384462
    vertex 9.522943999999997 9.999999999999998 1.7440350588696352e-15
  endloop
endfacet
facet normal -0.7933533402912349 0.6087614290087209 -4.632012834350572e-16
  outer loop
    vertex 9.388969403784428 9.499999999999995 10.192690062113384
    vertex 9.230050781186545 9.29289321881345 1.2631526208449597e-15
    vertex 9.230050781186536 9.292893218813449 10.196851492700615
  endloop
endfacet
facet normal -0.7933533402912349 0.6087614290087209 -4.632012834350572e-16
  outer loop
    vertex 9.230050781186545 9.29289321881345 1.2631526208449597e-15
    vertex 9.388969403784428 9.499999999999995 10.192690062113384
    vertex 9.388969403784436 9.499999999999998 1.4656942996266574e-15
  endloop
endfacet
facet normal -0.2050066530896713 -0.9787605796051306 -1.856293073556108e-17
  outer loop
    vertex 15.814029930149873 18.19552156916005 10.024443931092712
    vertex 16.74750599774212 18.0 9.000000000000034
    vertex 16.74750599774212 18.0 10.000000000000034
  endloop
endfacet
facet normal -0.7933533402912345 -0.6087614290087214 -8.642661187290347e-16
  outer loop
    vertex 9.230050781186536 10.707106781186543 10.196851492700613
    vertex 9.388969403784436 10.499999999999998 1.796333284373638e-15
    vertex 9.388969403784428 10.499999999999996 10.192690062113384
  endloop
endfacet
facet normal -0.7933533402912345 -0.6087614290087214 -8.642661187290347e-16
  outer loop
    vertex 9.388969403784436 10.499999999999998 1.796333284373638e-15
    vertex 9.230050781186536 10.707106781186543 10.196851492700613
    vertex 9.230050781186545 10.707106781186544 1.7307467573234103e-15
  endloop
endfacet
facet normal -0.38268343236508906 0.9238795325112871 -2.9669085146758834e-17
  outer loop
    vertex 8.78176304510251 9.034074173710929 10.20859032019814
    vertex 9.022943999999997 9.133974596215559 1.0358921883045267e-15
    vertex 8.781763045102517 9.03407417371093 7.994004249173675e-16
  endloop
endfacet
facet normal -0.38268343236508906 0.9238795325112871 -2.9669085146758834e-17
  outer loop
    vertex 9.022943999999997 9.133974596215559 1.0358921883045267e-15
    vertex 8.78176304510251 9.034074173710929 10.20859032019814
    vertex 9.022943999999988 9.133974596215557 10.202274774629212
  endloop
endfacet
facet normal 0.9238795325112862 -0.3826834323650911 6.562529072489864e-16
  outer loop
    vertex 7.557018173710929 10.25881904510252 1.7115133261176126e-16
    vertex 7.656918596215551 10.499999999999996 10.200503469822165
    vertex 7.557018173710921 10.258819045102516 10.197887485193728
  endloop
endfacet
facet normal 0.9238795325112862 -0.3826834323650911 6.562529072489864e-16
  outer loop
    vertex 7.656918596215551 10.499999999999996 10.200503469822165
    vertex 7.557018173710929 10.25881904510252 1.7115133261176126e-16
    vertex 7.65691859621556 10.499999999999998 3.351713769417019e-16
  endloop
endfacet
facet normal -0.040660163517442324 -0.9991730336146661 0.0
  outer loop
    vertex 16.74750599774212 17.999999999999996 1.0000000000000173
    vertex 15.962915040463669 18.031927999999997 1.7820231733571566e-14
    vertex 16.74750599774212 17.999999999999996 1.7820231733571566e-14
  endloop
endfacet
facet normal 0.9914448613738105 0.13052619222005182 8.817361135559421e-16
  outer loop
    vertex 7.557018173710929 9.741180954897477 0.0
    vertex 7.522943999999989 9.999999999999996 10.196995221553399
    vertex 7.557018173710921 9.741180954897475 10.19788748519373
  endloop
endfacet
facet normal 0.9914448613738105 0.13052619222005182 8.817361135559421e-16
  outer loop
    vertex 7.522943999999989 9.999999999999996 10.196995221553399
    vertex 7.557018173710929 9.741180954897477 0.0
    vertex 7.522943999999998 9.999999999999998 5.683061769872386e-17
  endloop
endfacet
facet normal -0.008867966599182812 -0.9999606788111199 0.0
  outer loop
    vertex 16.74750599774212 5.999999999999997 1.000000000000013
    vertex 15.962915040463669 6.006957999999996 1.3590282009749718e-14
    vertex 16.74750599774212 5.999999999999997 1.3590282009749718e-14
  endloop
endfacet
facet normal 0.1305261922200507 -0.9914448613738107 -2.1087870729589856e-16
  outer loop
    vertex 8.522943999999997 10.999999999999998 1.2310718230311601e-15
    vertex 8.264124954897468 10.965925826289064 10.21640372790692
    vertex 8.264124954897477 10.965925826289066 1.001465251650992e-15
  endloop
endfacet
facet normal 0.1305261922200507 -0.9914448613738107 -2.1087870729589856e-16
  outer loop
    vertex 8.264124954897468 10.965925826289064 10.21640372790692
    vertex 8.522943999999997 10.999999999999998 1.2310718230311601e-15
    vertex 8.522943999999988 10.999999999999995 10.215367735413803
  endloop
endfacet
facet normal 0.1305261922200507 -0.9914448613738107 -2.1087870729589856e-16
  outer loop
    vertex 8.264124954897468 10.965925826289064 10.21640372790692
    vertex 8.522943999999988 10.999999999999995 10.215367735413803
    vertex 8.37375299887106 10.980358632083808 10.219274439268196
  endloop
endfacet
facet normal 8.436022205854556e-16 3.3063898474698043e-16 -1.0
  outer loop
    vertex 1.4099832412739487e-15 20.0 7.950349044653923e-15
    vertex 0.8086280000000003 17.999999999999996 6.540365803379974e-15
    vertex 0.0 17.999999999999996 6.540365803379974e-15
  endloop
endfacet
facet normal 8.436022205854556e-16 3.3063898474698043e-16 -1.0
  outer loop
    vertex 0.8086280000000003 17.999999999999996 6.540365803379974e-15
    vertex 1.4099832412739487e-15 20.0 7.950349044653923e-15
    vertex 16.74750599774212 20.0 3.05100809050371e-14
  endloop
endfacet
facet normal 8.436022205854556e-16 3.3063898474698043e-16 -1.0
  outer loop
    vertex 0.8086280000000003 17.999999999999996 6.540365803379974e-15
    vertex 16.74750599774212 20.0 3.05100809050371e-14
    vertex 0.8086280000000003 13.999999999999996 6.540365803379974e-15
  endloop
endfacet
facet normal 8.436022205854556e-16 3.3063898474698043e-16 -1.0
  outer loop
    vertex 0.8086280000000003 13.999999999999996 6.540365803379974e-15
    vertex 16.74750599774212 20.0 3.05100809050371e-14
    vertex 0.8086280000000003 5.999999999999997 2.3104160795581283e-15
  endloop
endfacet
facet normal 8.436022205854556e-16 3.3063898474698043e-16 -1.0
  outer loop
    vertex 0.8086280000000003 5.999999999999997 2.3104160795581283e-15
    vertex 16.74750599774212 20.0 3.05100809050371e-14
    vertex 7.815837218813449 10.707106781186546 5.377130557233995e-16
  endloop
endfacet
facet normal 8.436022205854556e-16 3.3063898474698043e-16 -1.0
  outer loop
    vertex 0.8086280000000003 5.999999999999997 2.3104160795581283e-15
    vertex 7.815837218813449 10.707106781186546 5.377130557233995e-16
    vertex 0.8086280000000003 1.9999999999999962 2.3104160795581283e-15
  endloop
endfacet
facet normal 8.436022205854556e-16 3.3063898474698043e-16 -1.0
  outer loop
    vertex 0.8086280000000003 1.9999999999999962 2.3104160795581283e-15
    vertex 7.815837218813449 10.707106781186546 5.377130557233995e-16
    vertex 7.65691859621556 10.499999999999998 3.351713769417019e-16
  endloop
endfacet
facet normal 8.436022205854556e-16 3.3063898474698043e-16 -1.0
  outer loop
    vertex 0.8086280000000003 1.9999999999999962 2.3104160795581283e-15
    vertex 7.65691859621556 10.499999999999998 3.351713769417019e-16
    vertex 7.557018173710929 10.25881904510252 1.7115133261176126e-16
  endloop
endfacet
facet normal 8.436022205854556e-16 3.3063898474698043e-16 -1.0
  outer loop
    vertex 0.8086280000000003 1.9999999999999962 2.3104160795581283e-15
    vertex 7.557018173710929 10.25881904510252 1.7115133261176126e-16
    vertex 7.522943999999998 9.999999999999998 5.683061769872386e-17
  endloop
endfacet
facet normal 8.436022205854556e-16 3.3063898474698043e-16 -1.0
  outer loop
    vertex 7.815837218813449 10.707106781186546 5.377130557233995e-16
    vertex 16.74750599774212 20.0 3.05100809050371e-14
    vertex 8.022943999999999 10.866025403784437 7.649734882638332e-16
  endloop
endfacet
facet normal 8.436022205854556e-16 3.3063898474698043e-16 -1.0
  outer loop
    vertex 8.022943999999999 10.866025403784437 7.649734882638332e-16
    vertex 16.74750599774212 20.0 3.05100809050371e-14
    vertex 8.264124954897477 10.965925826289066 1.001465251650992e-15
  endloop
endfacet
facet normal 8.436022205854556e-16 3.3063898474698043e-16 -1.0
  outer loop
    vertex 8.264124954897477 10.965925826289066 1.001465251650992e-15
    vertex 16.74750599774212 20.0 3.05100809050371e-14
    vertex 8.522943999999997 10.999999999999998 1.2310718230311601e-15
  endloop
endfacet
facet normal 8.436022205854556e-16 3.3063898474698043e-16 -1.0
  outer loop
    vertex 8.522943999999997 10.999999999999998 1.2310718230311601e-15
    vertex 16.74750599774212 20.0 3.05100809050371e-14
    vertex 8.781763045102519 10.965925826289066 1.4381458940075795e-15
  endloop
endfacet
facet normal 8.436022205854556e-16 3.3063898474698043e-16 -1.0
  outer loop
    vertex 8.781763045102519 10.965925826289066 1.4381458940075795e-15
    vertex 16.74750599774212 20.0 3.05100809050371e-14
    vertex 9.022943999999997 10.866025403784436 1.6085757088492882e-15
  endloop
endfacet
facet normal 8.436022205854556e-16 3.3063898474698043e-16 -1.0
  outer loop
    vertex 9.022943999999997 10.866025403784436 1.6085757088492882e-15
    vertex 16.74750599774212 20.0 3.05100809050371e-14
    vertex 9.230050781186545 10.707106781186544 1.7307467573234103e-15
  endloop
endfacet
facet normal 8.436022205854556e-16 3.3063898474698043e-16 -1.0
  outer loop
    vertex 9.230050781186545 10.707106781186544 1.7307467573234103e-15
    vertex 16.74750599774212 20.0 3.05100809050371e-14
    vertex 9.388969403784436 10.499999999999998 1.796333284373638e-15
  endloop
endfacet
facet normal 8.436022205854556e-16 3.3063898474698043e-16 -1.0
  outer loop
    vertex 9.388969403784436 10.499999999999998 1.796333284373638e-15
    vertex 16.74750599774212 20.0 3.05100809050371e-14
    vertex 9.488869826289065 10.258819045102518 1.8008656765683592e-15
  endloop
endfacet
facet normal 8.436022205854556e-16 3.3063898474698043e-16 -1.0
  outer loop
    vertex 9.488869826289065 10.258819045102518 1.8008656765683592e-15
    vertex 16.74750599774212 20.0 3.05100809050371e-14
    vertex 9.522943999999997 9.999999999999998 1.7440350588696352e-15
  endloop
endfacet
facet normal 8.436022205854556e-16 3.3063898474698043e-16 -1.0
  outer loop
    vertex 9.522943999999997 9.999999999999998 1.7440350588696352e-15
    vertex 16.74750599774212 20.0 3.05100809050371e-14
    vertex 15.962915040463669 18.031927999999997 1.7820231733571566e-14
  endloop
endfacet
facet normal 8.436022205854556e-16 3.3063898474698043e-16 -1.0
  outer loop
    vertex 15.962915040463669 18.031927999999997 1.7820231733571566e-14
    vertex 16.74750599774212 20.0 3.05100809050371e-14
    vertex 16.74750599774212 17.999999999999996 1.7820231733571566e-14
  endloop
endfacet
facet normal 8.436022205854556e-16 3.3063898474698043e-16 -1.0
  outer loop
    vertex 16.74750599774212 13.999999999999996 1.7820231733571566e-14
    vertex 15.962915040463669 6.006957999999996 1.3590282009749718e-14
    vertex 15.962915040463669 13.999999999999996 1.7820231733571566e-14
  endloop
endfacet
facet normal 8.436022205854556e-16 3.3063898474698043e-16 -1.0
  outer loop
    vertex 15.962915040463669 6.006957999999996 1.3590282009749718e-14
    vertex 16.74750599774212 13.999999999999996 1.7820231733571566e-14
    vertex 16.74750599774212 5.999999999999997 1.3590282009749718e-14
  endloop
endfacet
facet normal 8.436022205854556e-16 3.3063898474698043e-16 -1.0
  outer loop
    vertex 0.8086280000000003 1.9999999999999962 2.3104160795581283e-15
    vertex 1.4099832412739487e-15 0.0 9.004328382841796e-16
    vertex 0.0 1.9999999999999962 2.3104160795581283e-15
  endloop
endfacet
facet normal 8.436022205854556e-16 3.3063898474698043e-16 -1.0
  outer loop
    vertex 1.4099832412739487e-15 0.0 9.004328382841796e-16
    vertex 0.8086280000000003 1.9999999999999962 2.3104160795581283e-15
    vertex 16.74750599774212 0.0 2.3460164698667356e-14
  endloop
endfacet
facet normal 8.436022205854556e-16 3.3063898474698043e-16 -1.0
  outer loop
    vertex 16.74750599774212 0.0 2.3460164698667356e-14
    vertex 0.8086280000000003 1.9999999999999962 2.3104160795581283e-15
    vertex 7.815837218813449 9.29289321881345 7.011891924494888e-17
  endloop
endfacet
facet normal 8.436022205854556e-16 3.3063898474698043e-16 -1.0
  outer loop
    vertex 7.815837218813449 9.29289321881345 7.011891924494888e-17
    vertex 0.8086280000000003 1.9999999999999962 2.3104160795581283e-15
    vertex 7.656918596215558 9.499999999999998 4.532392194721013e-18
  endloop
endfacet
facet normal 8.436022205854556e-16 3.3063898474698043e-16 -1.0
  outer loop
    vertex 7.656918596215558 9.499999999999998 4.532392194721013e-18
    vertex 0.8086280000000003 1.9999999999999962 2.3104160795581283e-15
    vertex 7.557018173710929 9.741180954897477 0.0
  endloop
endfacet
facet normal 8.436022205854556e-16 3.3063898474698043e-16 -1.0
  outer loop
    vertex 7.557018173710929 9.741180954897477 0.0
    vertex 0.8086280000000003 1.9999999999999962 2.3104160795581283e-15
    vertex 7.522943999999998 9.999999999999998 5.683061769872386e-17
  endloop
endfacet
facet normal 8.436022205854556e-16 3.3063898474698043e-16 -1.0
  outer loop
    vertex 16.74750599774212 0.0 2.3460164698667356e-14
    vertex 7.815837218813449 9.29289321881345 7.011891924494888e-17
    vertex 8.022943999999997 9.133974596215559 1.9228996771907106e-16
  endloop
endfacet
facet normal 8.436022205854556e-16 3.3063898474698043e-16 -1.0
  outer loop
    vertex 16.74750599774212 0.0 2.3460164698667356e-14
    vertex 8.022943999999997 9.133974596215559 1.9228996771907106e-16
    vertex 8.264124954897476 9.03407417371093 3.6271978256077995e-16
  endloop
endfacet
facet normal 8.436022205854556e-16 3.3063898474698043e-16 -1.0
  outer loop
    vertex 16.74750599774212 0.0 2.3460164698667356e-14
    vertex 8.264124954897476 9.03407417371093 3.6271978256077995e-16
    vertex 8.522943999999997 8.999999999999998 5.697938535371991e-16
  endloop
endfacet
facet normal 8.436022205854556e-16 3.3063898474698043e-16 -1.0
  outer loop
    vertex 16.74750599774212 0.0 2.3460164698667356e-14
    vertex 8.522943999999997 8.999999999999998 5.697938535371991e-16
    vertex 8.781763045102517 9.03407417371093 7.994004249173675e-16
  endloop
endfacet
facet normal 8.436022205854556e-16 3.3063898474698043e-16 -1.0
  outer loop
    vertex 16.74750599774212 0.0 2.3460164698667356e-14
    vertex 8.781763045102517 9.03407417371093 7.994004249173675e-16
    vertex 9.022943999999997 9.133974596215559 1.0358921883045267e-15
  endloop
endfacet
facet normal 8.436022205854556e-16 3.3063898474698043e-16 -1.0
  outer loop
    vertex 16.74750599774212 0.0 2.3460164698667356e-14
    vertex 9.022943999999997 9.133974596215559 1.0358921883045267e-15
    vertex 9.230050781186545 9.29289321881345 1.2631526208449597e-15
  endloop
endfacet
facet normal 8.436022205854556e-16 3.3063898474698043e-16 -1.0
  outer loop
    vertex 16.74750599774212 0.0 2.3460164698667356e-14
    vertex 9.230050781186545 9.29289321881345 1.2631526208449597e-15
    vertex 9.388969403784436 9.499999999999998 1.4656942996266574e-15
  endloop
endfacet
facet normal 8.436022205854556e-16 3.3063898474698043e-16 -1.0
  outer loop
    vertex 16.74750599774212 0.0 2.3460164698667356e-14
    vertex 9.388969403784436 9.499999999999998 1.4656942996266574e-15
    vertex 9.488869826289065 9.741180954897477 1.6297143439565982e-15
  endloop
endfacet
facet normal 8.436022205854556e-16 3.3063898474698043e-16 -1.0
  outer loop
    vertex 16.74750599774212 0.0 2.3460164698667356e-14
    vertex 9.488869826289065 9.741180954897477 1.6297143439565982e-15
    vertex 9.522943999999997 9.999999999999998 1.7440350588696352e-15
  endloop
endfacet
facet normal 8.436022205854556e-16 3.3063898474698043e-16 -1.0
  outer loop
    vertex 16.74750599774212 0.0 2.3460164698667356e-14
    vertex 9.522943999999997 9.999999999999998 1.7440350588696352e-15
    vertex 15.962915040463669 1.9999999999999962 1.3590282009749718e-14
  endloop
endfacet
facet normal 8.436022205854556e-16 3.3063898474698043e-16 -1.0
  outer loop
    vertex 15.962915040463669 1.9999999999999962 1.3590282009749718e-14
    vertex 9.522943999999997 9.999999999999998 1.7440350588696352e-15
    vertex 15.962915040463669 18.031927999999997 1.7820231733571566e-14
  endloop
endfacet
facet normal 8.436022205854556e-16 3.3063898474698043e-16 -1.0
  outer loop
    vertex 15.962915040463669 1.9999999999999962 1.3590282009749718e-14
    vertex 15.962915040463669 18.031927999999997 1.7820231733571566e-14
    vertex 15.962915040463669 13.999999999999996 1.7820231733571566e-14
  endloop
endfacet
facet normal 8.436022205854556e-16 3.3063898474698043e-16 -1.0
  outer loop
    vertex 15.962915040463669 1.9999999999999962 1.3590282009749718e-14
    vertex 15.962915040463669 13.999999999999996 1.7820231733571566e-14
    vertex 15.962915040463669 6.006957999999996 1.3590282009749718e-14
  endloop
endfacet
facet normal 8.436022205854556e-16 3.3063898474698043e-16 -1.0
  outer loop
    vertex 16.74750599774212 0.0 2.3460164698667356e-14
    vertex 15.962915040463669 1.9999999999999962 1.3590282009749718e-14
    vertex 16.74750599774212 1.9999999999999962 1.3590282009749718e-14
  endloop
endfacet
facet normal 8.436022205854556e-16 3.3063898474698043e-16 -1.0
  outer loop
    vertex 0.8086280000000003 13.999999999999996 6.540365803379974e-15
    vertex 0.0 5.999999999999997 2.3104160795581283e-15
    vertex 0.0 13.999999999999996 6.540365803379974e-15
  endloop
endfacet
facet normal 8.436022205854556e-16 3.3063898474698043e-16 -1.0
  outer loop
    vertex 0.0 5.999999999999997 2.3104160795581283e-15
    vertex 0.8086280000000003 13.999999999999996 6.540365803379974e-15
    vertex 0.8086280000000003 5.999999999999997 2.3104160795581283e-15
  endloop
endfacet
facet normal -0.026307071102846823 -0.0027572638525927024 0.9996501065403021
  outer loop
    vertex 1.3984995463352985 13.933905122689438 10.03662099943489
    vertex 0.0 13.999999999999996 10.000000000000009
    vertex 0.8384859999999998 5.999999999999997 10.000000000000009
  endloop
endfacet
facet normal -0.026384599914910187 0.0027203783058232624 0.999648164320429
  outer loop
    vertex 8.37375299887106 0.0 10.219274439268192
    vertex 0.8513966573003364 1.9595668682676899 10.015397582428738
    vertex 0.2708623749541349 1.9871366489474198 10.000000000000009
  endloop
endfacet
facet normal 0.026176948307867088 1.4089095058473995e-15 0.9996573249755575
  outer loop
    vertex 16.74750599774212 20.0 10.00000000000003
    vertex 15.814029930149873 18.19552156916005 10.024443931092712
    vertex 16.74750599774212 18.0 10.000000000000034
  endloop
endfacet
facet normal 0.02617694830787177 -9.552309719608276e-18 0.9996573249755575
  outer loop
    vertex 15.814029930149873 18.19552156916005 10.024443931092712
    vertex 8.37375299887106 20.0 10.2192744392682
    vertex 15.814029930149873 14.196023569160053 10.024443931092712
  endloop
endfacet
facet normal 0.02648781767535075 -0.000702530754338681 0.9996488893433216
  outer loop
    vertex 16.74750599774212 14.0 10.000000000000034
    vertex 15.908036445949291 6.067620677128233 10.01666882860589
    vertex 16.535776050796176 6.017055201526051 10.000000000000034
  endloop
endfacet
facet normal -0.7775854073753393 0.0 -0.628777332795106
  outer loop
    vertex 0.0 17.999999999999996 1.000000000000006
    vertex 0.8086280000000003 13.999999999999996 6.540365803379974e-15
    vertex 0.0 13.999999999999996 1.000000000000006
  endloop
endfacet
facet normal -0.7775854073753393 0.0 -0.628777332795106
  outer loop
    vertex 0.8086280000000003 13.999999999999996 6.540365803379974e-15
    vertex 0.0 17.999999999999996 1.000000000000006
    vertex 0.8086280000000003 17.999999999999996 6.540365803379974e-15
  endloop
endfacet
facet normal 0.7867474911560757 -2.9744577900936745e-18 -0.6172749672225665
  outer loop
    vertex 15.962915040463669 6.006957999999996 1.3590282009749718e-14
    vertex 16.74750599774212 1.9999999999999962 1.000000000000013
    vertex 15.962915040463669 1.9999999999999962 1.3590282009749718e-14
  endloop
endfacet
facet normal 0.7867474911560757 -2.9744577900936745e-18 -0.6172749672225665
  outer loop
    vertex 16.74750599774212 1.9999999999999962 1.000000000000013
    vertex 15.962915040463669 6.006957999999996 1.3590282009749718e-14
    vertex 16.74750599774212 5.999999999999997 1.000000000000013
  endloop
endfacet
facet normal 0.0 1.0 0.0
  outer loop
    vertex 0.0 1.9999999999999962 1.0000000000000018
    vertex 0.8086280000000003 1.9999999999999962 2.3104160795581283e-15
    vertex 0.0 1.9999999999999962 2.3104160795581283e-15
  endloop
endfacet
facet normal 0.0 -1.0 0.0
  outer loop
    vertex 0.0 5.999999999999997 1.0000000000000018
    vertex 0.0 5.999999999999997 2.3104160795581283e-15
    vertex 0.8086280000000003 5.999999999999997 2.3104160795581283e-15
  endloop
endfacet
facet normal -1.0 2.2896193318179515e-32 -5.929836061432491e-17
  outer loop
    vertex 1.4099832412739487e-15 20.0 10.000000000000009
    vertex 0.0 17.999999999999996 9.000000000000009
    vertex 0.0 17.999999999999996 10.000000000000009
  endloop
endfacet
facet normal -1.0 2.2896193318179515e-32 -5.929836061432491e-17
  outer loop
    vertex 0.0 17.999999999999996 9.000000000000009
    vertex 1.4099832412739487e-15 20.0 10.000000000000009
    vertex 0.0 17.999999999999996 1.000000000000006
  endloop
endfacet
facet normal -1.0 2.2896193318179515e-32 -5.929836061432491e-17
  outer loop
    vertex 0.0 17.999999999999996 1.000000000000006
    vertex 1.4099832412739487e-15 20.0 10.000000000000009
    vertex 0.0 17.999999999999996 6.540365803379974e-15
  endloop
endfacet
facet normal -1.0 2.2896193318179515e-32 -5.929836061432491e-17
  outer loop
    vertex 0.0 17.999999999999996 6.540365803379974e-15
    vertex 1.4099832412739487e-15 20.0 10.000000000000009
    vertex 1.4099832412739487e-15 20.0 7.950349044653923e-15
  endloop
endfacet
facet normal -1.0 2.2896193318179515e-32 -5.929836061432491e-17
  outer loop
    vertex 0.0 17.999999999999996 9.000000000000009
    vertex 0.0 13.999999999999996 1.000000000000006
    vertex 0.0 13.999999999999996 9.000000000000009
  endloop
endfacet
facet normal -1.0 2.2896193318179515e-32 -5.929836061432491e-17
  outer loop
    vertex 0.0 13.999999999999996 1.000000000000006
    vertex 0.0 17.999999999999996 9.000000000000009
    vertex 0.0 17.999999999999996 1.000000000000006
  endloop
endfacet
facet normal -1.0 2.2896193318179515e-32 -5.929836061432491e-17
  outer loop
    vertex 0.0 13.999999999999996 10.000000000000009
    vertex 0.0 5.999999999999997 9.000000000000009
    vertex 0.0 5.999999999999997 10.000000000000009
  endloop
endfacet
facet normal -1.0 2.2896193318179515e-32 -5.929836061432491e-17
  outer loop
    vertex 0.0 5.999999999999997 9.000000000000009
    vertex 0.0 13.999999999999996 10.000000000000009
    vertex 0.0 5.999999999999997 1.0000000000000018
  endloop
endfacet
facet normal -1.0 2.2896193318179515e-32 -5.929836061432491e-17
  outer loop
    vertex 0.0 5.999999999999997 1.0000000000000018
    vertex 0.0 13.999999999999996 10.000000000000009
    vertex 0.0 5.999999999999997 2.3104160795581283e-15
  endloop
endfacet
facet normal -1.0 2.2896193318179515e-32 -5.929836061432491e-17
  outer loop
    vertex 0.0 5.999999999999997 2.3104160795581283e-15
    vertex 0.0 13.999999999999996 10.000000000000009
    vertex 0.0 13.999999999999996 6.540365803379974e-15
  endloop
endfacet
facet normal -1.0 2.2896193318179515e-32 -5.929836061432491e-17
  outer loop
    vertex 0.0 13.999999999999996 6.540365803379974e-15
    vertex 0.0 13.999999999999996 10.000000000000009
    vertex 0.0 13.999999999999996 9.000000000000009
  endloop
endfacet
facet normal -1.0 2.2896193318179515e-32 -5.929836061432491e-17
  outer loop
    vertex 0.0 13.999999999999996 6.540365803379974e-15
    vertex 0.0 13.999999999999996 9.000000000000009
    vertex 0.0 13.999999999999996 1.000000000000006
  endloop
endfacet
facet normal -1.0 2.2896193318179515e-32 -5.929836061432491e-17
  outer loop
    vertex 0.0 5.999999999999997 9.000000000000009
    vertex 0.0 1.9999999999999962 1.0000000000000018
    vertex 0.0 1.9999999999999962 9.000000000000009
  endloop
endfacet
facet normal -1.0 2.2896193318179515e-32 -5.929836061432491e-17
  outer loop
    vertex 0.0 1.9999999999999962 1.0000000000000018
    vertex 0.0 5.999999999999997 9.000000000000009
    vertex 0.0 5.999999999999997 1.0000000000000018
  endloop
endfacet
facet normal -1.0 2.2896193318179515e-32 -5.929836061432491e-17
  outer loop
    vertex 0.0 1.9999999999999962 10.000000000000009
    vertex 1.4099832412739487e-15 0.0 9.004328382841796e-16
    vertex 1.4099832412739487e-15 0.0 10.000000000000002
  endloop
endfacet
facet normal -1.0 2.2896193318179515e-32 -5.929836061432491e-17
  outer loop
    vertex 1.4099832412739487e-15 0.0 9.004328382841796e-16
    vertex 0.0 1.9999999999999962 10.000000000000009
    vertex 0.0 1.9999999999999962 2.3104160795581283e-15
  endloop
endfacet
facet normal -1.0 2.2896193318179515e-32 -5.929836061432491e-17
  outer loop
    vertex 0.0 1.9999999999999962 2.3104160795581283e-15
    vertex 0.0 1.9999999999999962 10.000000000000009
    vertex 0.0 1.9999999999999962 9.000000000000009
  endloop
endfacet
facet normal -1.0 2.2896193318179515e-32 -5.929836061432491e-17
  outer loop
    vertex 0.0 1.9999999999999962 2.3104160795581283e-15
    vertex 0.0 1.9999999999999962 9.000000000000009
    vertex 0.0 1.9999999999999962 1.0000000000000018
  endloop
endfacet
facet normal -0.026176948307874582 1.900576967238031e-17 0.9996573249755573
  outer loop
    vertex 1.3984995463352985 17.494151122689438 10.03662099943489
    vertex 1.4099832412739487e-15 20.0 10.000000000000009
    vertex 0.0 17.999999999999996 10.000000000000009
  endloop
endfacet
facet normal 0.7711059702594075 -2.7730255918683162e-17 0.6367068262790165
  outer loop
    vertex 16.74750599774212 6.0 9.000000000000034
    vertex 15.921799997742118 1.9999999999999991 10.000000000000034
    vertex 16.74750599774212 1.9999999999999991 9.000000000000034
  endloop
endfacet
facet normal 0.7711059702594075 -2.7730255918683162e-17 0.6367068262790165
  outer loop
    vertex 15.921799997742118 1.9999999999999991 10.000000000000034
    vertex 16.74750599774212 6.0 9.000000000000034
    vertex 15.908036445949291 6.067620677128233 10.01666882860589
  endloop
endfacet
facet normal 0.026176948307871557 -9.0765324683325e-16 0.9996573249755575
  outer loop
    vertex 16.74750599774212 20.0 10.00000000000003
    vertex 8.37375299887106 20.0 10.2192744392682
    vertex 15.814029930149873 18.19552156916005 10.024443931092712
  endloop
endfacet
facet normal 0.0 1.0 0.0
  outer loop
    vertex 16.74750599774212 13.999999999999996 1.0000000000000173
    vertex 16.74750599774212 13.999999999999996 1.7820231733571566e-14
    vertex 15.962915040463669 13.999999999999996 1.7820231733571566e-14
  endloop
endfacet
facet normal 1.0 -1.52927133897953e-31 -1.1147959293495603e-31
  outer loop
    vertex 16.74750599774212 20.0 3.05100809050371e-14
    vertex 16.74750599774212 17.999999999999996 1.0000000000000173
    vertex 16.74750599774212 17.999999999999996 1.7820231733571566e-14
  endloop
endfacet
facet normal 1.0 -1.52927133897953e-31 -1.1147959293495603e-31
  outer loop
    vertex 16.74750599774212 17.999999999999996 1.0000000000000173
    vertex 16.74750599774212 20.0 3.05100809050371e-14
    vertex 16.74750599774212 18.0 9.000000000000034
  endloop
endfacet
facet normal 1.0 -1.52927133897953e-31 -1.1147959293495603e-31
  outer loop
    vertex 16.74750599774212 18.0 9.000000000000034
    vertex 16.74750599774212 20.0 3.05100809050371e-14
    vertex 16.74750599774212 18.0 10.000000000000034
  endloop
endfacet
facet normal 1.0 -1.52927133897953e-31 -1.1147959293495603e-31
  outer loop
    vertex 16.74750599774212 18.0 10.000000000000034
    vertex 16.74750599774212 20.0 3.05100809050371e-14
    vertex 16.74750599774212 20.0 10.00000000000003
  endloop
endfacet
facet normal 1.0 -1.52927133897953e-31 -1.1147959293495603e-31
  outer loop
    vertex 16.74750599774212 17.999999999999996 1.0000000000000173
    vertex 16.74750599774212 14.0 9.000000000000034
    vertex 16.74750599774212 13.999999999999996 1.0000000000000173
  endloop
endfacet
facet normal 1.0 -1.52927133897953e-31 -1.1147959293495603e-31
  outer loop
    vertex 16.74750599774212 14.0 9.000000000000034
    vertex 16.74750599774212 17.999999999999996 1.0000000000000173
    vertex 16.74750599774212 18.0 9.000000000000034
  endloop
endfacet
facet normal 1.0 -1.52927133897953e-31 -1.1147959293495603e-31
  outer loop
    vertex 16.74750599774212 13.999999999999996 1.7820231733571566e-14
    vertex 16.74750599774212 5.999999999999997 1.000000000000013
    vertex 16.74750599774212 5.999999999999997 1.3590282009749718e-14
  endloop
endfacet
facet normal 1.0 -1.52927133897953e-31 -1.1147959293495603e-31
  outer loop
    vertex 16.74750599774212 5.999999999999997 1.000000000000013
    vertex 16.74750599774212 13.999999999999996 1.7820231733571566e-14
    vertex 16.74750599774212 6.0 9.000000000000034
  endloop
endfacet
facet normal 1.0 -1.52927133897953e-31 -1.1147959293495603e-31
  outer loop
    vertex 16.74750599774212 6.0 9.000000000000034
    vertex 16.74750599774212 13.999999999999996 1.7820231733571566e-14
    vertex 16.74750599774212 6.0 10.000000000000034
  endloop
endfacet
facet normal 1.0 -1.52927133897953e-31 -1.1147959293495603e-31
  outer loop
    vertex 16.74750599774212 6.0 10.000000000000034
    vertex 16.74750599774212 13.999999999999996 1.7820231733571566e-14
    vertex 16.74750599774212 13.999999999999996 1.0000000000000173
  endloop
endfacet
facet normal 1.0 -1.52927133897953e-31 -1.1147959293495603e-31
  outer loop
    vertex 16.74750599774212 6.0 10.000000000000034
    vertex 16.74750599774212 13.999999999999996 1.0000000000000173
    vertex 16.74750599774212 14.0 10.000000000000034
  endloop
endfacet
facet normal 1.0 -1.52927133897953e-31 -1.1147959293495603e-31
  outer loop
    vertex 16.74750599774212 14.0 10.000000000000034
    vertex 16.74750599774212 13.999999999999996 1.0000000000000173
    vertex 16.74750599774212 14.0 9.000000000000034
  endloop
endfacet
facet normal 1.0 -1.52927133897953e-31 -1.1147959293495603e-31
  outer loop
    vertex 16.74750599774212 5.999999999999997 1.000000000000013
    vertex 16.74750599774212 1.9999999999999991 9.000000000000034
    vertex 16.74750599774212 1.9999999999999962 1.000000000000013
  endloop
endfacet
facet normal 1.0 -1.52927133897953e-31 -1.1147959293495603e-31
  outer loop
    vertex 16.74750599774212 1.9999999999999991 9.000000000000034
    vertex 16.74750599774212 5.999999999999997 1.000000000000013
    vertex 16.74750599774212 6.0 9.000000000000034
  endloop
endfacet
facet normal 1.0 -1.52927133897953e-31 -1.1147959293495603e-31
  outer loop
    vertex 16.74750599774212 1.9999999999999962 1.3590282009749718e-14
    vertex 16.74750599774212 0.0 10.000000000000023
    vertex 16.74750599774212 0.0 2.3460164698667356e-14
  endloop
endfacet
facet normal 1.0 -1.52927133897953e-31 -1.1147959293495603e-31
  outer loop
    vertex 16.74750599774212 0.0 10.000000000000023
    vertex 16.74750599774212 1.9999999999999962 1.3590282009749718e-14
    vertex 16.74750599774212 1.9999999999999962 1.000000000000013
  endloop
endfacet
facet normal 1.0 -1.52927133897953e-31 -1.1147959293495603e-31
  outer loop
    vertex 16.74750599774212 0.0 10.000000000000023
    vertex 16.74750599774212 1.9999999999999962 1.000000000000013
    vertex 16.74750599774212 1.9999999999999991 10.000000000000034
  endloop
endfacet
facet normal 1.0 -1.52927133897953e-31 -1.1147959293495603e-31
  outer loop
    vertex 16.74750599774212 1.9999999999999991 10.000000000000034
    vertex 16.74750599774212 1.9999999999999962 1.000000000000013
    vertex 16.74750599774212 1.9999999999999991 9.000000000000034
  endloop
endfacet
facet normal 0.0 -1.0 0.0
  outer loop
    vertex 0.0 5.999999999999997 10.000000000000009
    vertex 0.0 5.999999999999997 9.000000000000009
    vertex 0.8384859999999998 5.999999999999997 10.000000000000009
  endloop
endfacet
facet normal -0.7775854073753393 0.0 -0.628777332795106
  outer loop
    vertex 0.0 5.999999999999997 1.0000000000000018
    vertex 0.8086280000000003 1.9999999999999962 2.3104160795581283e-15
    vertex 0.0 1.9999999999999962 1.0000000000000018
  endloop
endfacet
facet normal -0.7775854073753393 0.0 -0.628777332795106
  outer loop
    vertex 0.8086280000000003 1.9999999999999962 2.3104160795581283e-15
    vertex 0.0 5.999999999999997 1.0000000000000018
    vertex 0.8086280000000003 5.999999999999997 2.3104160795581283e-15
  endloop
endfacet
facet normal -0.02617694830787405 -3.3525644874886497e-16 0.9996573249755573
  outer loop
    vertex 8.37375299887106 0.0 10.219274439268192
    vertex 7.522943999999989 9.999999999999996 10.196995221553399
    vertex 1.3984995463352985 17.494151122689438 10.03662099943489
  endloop
endfacet
facet normal -0.02617694830787405 -3.3525644874886497e-16 0.9996573249755573
  outer loop
    vertex 7.522943999999989 9.999999999999996 10.196995221553399
    vertex 8.37375299887106 0.0 10.219274439268192
    vertex 7.557018173710921 9.741180954897475 10.19788748519373
  endloop
endfacet
facet normal -0.02617694830787405 -3.3525644874886497e-16 0.9996573249755573
  outer loop
    vertex 7.557018173710921 9.741180954897475 10.19788748519373
    vertex 8.37375299887106 0.0 10.219274439268192
    vertex 7.65691859621555 9.499999999999996 10.200503469822165
  endloop
endfacet
facet normal -0.02617694830787405 -3.3525644874886497e-16 0.9996573249755573
  outer loop
    vertex 7.65691859621555 9.499999999999996 10.200503469822165
    vertex 8.37375299887106 0.0 10.219274439268192
    vertex 7.815837218813441 9.292893218813449 10.204664900409396
  endloop
endfacet
facet normal -0.02617694830787405 -3.3525644874886497e-16 0.9996573249755573
  outer loop
    vertex 7.815837218813441 9.292893218813449 10.204664900409396
    vertex 8.37375299887106 0.0 10.219274439268192
    vertex 8.022943999999988 9.133974596215557 10.210088182337993
  endloop
endfacet
facet normal -0.02617694830787405 -3.3525644874886497e-16 0.9996573249755573
  outer loop
    vertex 8.022943999999988 9.133974596215557 10.210088182337993
    vertex 8.37375299887106 0.0 10.219274439268192
    vertex 8.264124954897467 9.034074173710927 10.216403727906918
  endloop
endfacet
facet normal -0.02617694830787405 -3.3525644874886497e-16 0.9996573249755573
  outer loop
    vertex 8.264124954897467 9.034074173710927 10.216403727906918
    vertex 8.37375299887106 0.0 10.219274439268192
    vertex 8.37375299887106 9.019641367916183 10.219274439268196
  endloop
endfacet
facet normal -0.02617694830787405 -3.3525644874886497e-16 0.9996573249755573
  outer loop
    vertex 7.522943999999989 9.999999999999996 10.196995221553399
    vertex 8.37375299887106 20.0 10.2192744392682
    vertex 1.3984995463352985 17.494151122689438 10.03662099943489
  endloop
endfacet
facet normal -0.02617694830787405 -3.3525644874886497e-16 0.9996573249755573
  outer loop
    vertex 8.37375299887106 20.0 10.2192744392682
    vertex 7.522943999999989 9.999999999999996 10.196995221553399
    vertex 7.557018173710921 10.258819045102516 10.197887485193728
  endloop
endfacet
facet normal -0.02617694830787405 -3.3525644874886497e-16 0.9996573249755573
  outer loop
    vertex 8.37375299887106 20.0 10.2192744392682
    vertex 7.557018173710921 10.258819045102516 10.197887485193728
    vertex 7.656918596215551 10.499999999999996 10.200503469822165
  endloop
endfacet
facet normal -0.02617694830787405 -3.3525644874886497e-16 0.9996573249755573
  outer loop
    vertex 8.37375299887106 20.0 10.2192744392682
    vertex 7.656918596215551 10.499999999999996 10.200503469822165
    vertex 7.815837218813441 10.707106781186543 10.204664900409394
  endloop
endfacet
facet normal -0.02617694830787405 -3.3525644874886497e-16 0.9996573249755573
  outer loop
    vertex 8.37375299887106 20.0 10.2192744392682
    vertex 7.815837218813441 10.707106781186543 10.204664900409394
    vertex 8.02294399999999 10.866025403784436 10.210088182337993
  endloop
endfacet
facet normal -0.02617694830787405 -3.3525644874886497e-16 0.9996573249755573
  outer loop
    vertex 8.37375299887106 20.0 10.2192744392682
    vertex 8.02294399999999 10.866025403784436 10.210088182337993
    vertex 8.264124954897468 10.965925826289064 10.21640372790692
  endloop
endfacet
facet normal -0.02617694830787405 -3.3525644874886497e-16 0.9996573249755573
  outer loop
    vertex 8.37375299887106 20.0 10.2192744392682
    vertex 8.264124954897468 10.965925826289064 10.21640372790692
    vertex 8.37375299887106 10.980358632083808 10.219274439268196
  endloop
endfacet
facet normal 0.7391626359703234 -9.700929004086589e-19 0.6735269835614631
  outer loop
    vertex 16.74750599774212 18.0 9.000000000000034
    vertex 15.814029930149873 14.196023569160053 10.024443931092712
    vertex 16.74750599774212 14.0 9.000000000000034
  endloop
endfacet
facet normal 0.7391626359703234 -9.700929004086589e-19 0.6735269835614631
  outer loop
    vertex 15.814029930149873 14.196023569160053 10.024443931092712
    vertex 16.74750599774212 18.0 9.000000000000034
    vertex 15.814029930149873 18.19552156916005 10.024443931092712
  endloop
endfacet
facet normal 0.20551080287890414 0.9786548471754832 1.856092544048796e-17
  outer loop
    vertex 15.814029930149873 14.196023569160053 10.024443931092712
    vertex 16.74750599774212 14.0 10.000000000000034
    vertex 16.74750599774212 14.0 9.000000000000034
  endloop
endfacet
facet normal -0.7662759270437892 -1.401760981912595e-16 0.6425116369632393
  outer loop
    vertex 0.8384859999999998 5.999999999999997 10.000000000000009
    vertex 0.0 1.9999999999999962 9.000000000000009
    vertex 0.8513966573003364 1.9595668682676899 10.015397582428738
  endloop
endfacet
facet normal -0.7662759270437892 -1.401760981912595e-16 0.6425116369632393
  outer loop
    vertex 0.0 1.9999999999999962 9.000000000000009
    vertex 0.8384859999999998 5.999999999999997 10.000000000000009
    vertex 0.0 5.999999999999997 9.000000000000009
  endloop
endfacet
facet normal 0.02617694830787141 -4.519112777529807e-16 0.9996573249755575
  outer loop
    vertex 8.522943999999988 10.999999999999995 10.215367735413803
    vertex 8.37375299887106 20.0 10.2192744392682
    vertex 8.37375299887106 10.980358632083808 10.219274439268196
  endloop
endfacet
facet normal 0.02617694830787141 -4.519112777529807e-16 0.9996573249755575
  outer loop
    vertex 8.37375299887106 20.0 10.2192744392682
    vertex 8.522943999999988 10.999999999999995 10.215367735413803
    vertex 15.814029930149873 14.196023569160053 10.024443931092712
  endloop
endfacet
facet normal 0.02617694830787141 -4.519112777529807e-16 0.9996573249755575
  outer loop
    vertex 15.814029930149873 14.196023569160053 10.024443931092712
    vertex 8.522943999999988 10.999999999999995 10.215367735413803
    vertex 8.78176304510251 10.965925826289064 10.20859032019814
  endloop
endfacet
facet normal 0.02617694830787141 -4.519112777529807e-16 0.9996573249755575
  outer loop
    vertex 15.814029930149873 14.196023569160053 10.024443931092712
    vertex 8.78176304510251 10.965925826289064 10.20859032019814
    vertex 9.022943999999988 10.866025403784434 10.202274774629212
  endloop
endfacet
facet normal 0.02617694830787141 -4.519112777529807e-16 0.9996573249755575
  outer loop
    vertex 15.814029930149873 14.196023569160053 10.024443931092712
    vertex 9.022943999999988 10.866025403784434 10.202274774629212
    vertex 9.230050781186536 10.707106781186543 10.196851492700613
  endloop
endfacet
facet normal 0.02617694830787141 -4.519112777529807e-16 0.9996573249755575
  outer loop
    vertex 15.814029930149873 14.196023569160053 10.024443931092712
    vertex 9.230050781186536 10.707106781186543 10.196851492700613
    vertex 9.388969403784428 10.499999999999996 10.192690062113384
  endloop
endfacet
facet normal -0.5954854639429108 2.525138801922855e-18 0.8033660823265423
  outer loop
    vertex 1.3984995463352985 13.933905122689438 10.03662099943489
    vertex 0.0 17.999999999999996 9.000000000000009
    vertex 0.0 13.999999999999996 9.000000000000009
  endloop
endfacet
facet normal -0.5954854639429108 2.525138801922855e-18 0.8033660823265423
  outer loop
    vertex 0.0 17.999999999999996 9.000000000000009
    vertex 1.3984995463352985 13.933905122689438 10.03662099943489
    vertex 1.3984995463352985 17.494151122689438 10.03662099943489
  endloop
endfacet
facet normal 1.557993683628074e-28 1.0 -9.147816333066127e-14
  outer loop
    vertex 0.7845909572783131 20.000000000000004 0.03082666266871788
    vertex 16.74750599774212 20.0 3.05100809050371e-14
    vertex 1.4099832412739487e-15 20.0 7.950349044653923e-15
  endloop
endfacet
facet normal 1.557993683628074e-28 1.0 -9.147816333066127e-14
  outer loop
    vertex 16.74750599774212 20.0 3.05100809050371e-14
    vertex 0.7845909572783131 20.000000000000004 0.03082666266871788
    vertex 15.962915040463669 20.000000000000004 0.030826662668750313
  endloop
endfacet
facet normal 0.04743689472559605 0.9988742368380481 -8.226202093610924e-16
  outer loop
    vertex 0.0 1.9999999999999962 9.000000000000009
    vertex 0.2708623749541349 1.9871366489474198 10.000000000000009
    vertex 0.8513966573003364 1.9595668682676899 10.015397582428738
  endloop
endfacet
facet normal 0.04743689472559605 0.9988742368380481 -8.226202093610924e-16
  outer loop
    vertex 0.2708623749541349 1.9871366489474198 10.000000000000009
    vertex 0.0 1.9999999999999962 9.000000000000009
    vertex 0.0 1.9999999999999962 10.000000000000009
  endloop
endfacet
facet normal 0.026921003782320697 -0.0003868362057711138 0.9996374892495291
  outer loop
    vertex 16.74750599774212 0.0 10.000000000000023
    vertex 8.37375299887106 9.019641367916183 10.219274439268196
    vertex 8.37375299887106 0.0 10.219274439268192
  endloop
endfacet
facet normal 0.026921003782320697 -0.0003868362057711138 0.9996374892495291
  outer loop
    vertex 8.37375299887106 9.019641367916183 10.219274439268196
    vertex 16.74750599774212 0.0 10.000000000000023
    vertex 8.522943999999988 8.999999999999995 10.215367735413805
  endloop
endfacet
facet normal 0.026921003782320697 -0.0003868362057711138 0.9996374892495291
  outer loop
    vertex 8.522943999999988 8.999999999999995 10.215367735413805
    vertex 16.74750599774212 0.0 10.000000000000023
    vertex 8.78176304510251 9.034074173710929 10.20859032019814
  endloop
endfacet
facet normal 0.026921003782320697 -0.0003868362057711138 0.9996374892495291
  outer loop
    vertex 8.78176304510251 9.034074173710929 10.20859032019814
    vertex 16.74750599774212 0.0 10.000000000000023
    vertex 9.022943999999988 9.133974596215557 10.202274774629212
  endloop
endfacet
facet normal 0.026921003782320697 -0.0003868362057711138 0.9996374892495291
  outer loop
    vertex 9.022943999999988 9.133974596215557 10.202274774629212
    vertex 16.74750599774212 0.0 10.000000000000023
    vertex 9.230050781186536 9.292893218813449 10.196851492700615
  endloop
endfacet
facet normal 0.026921003782320697 -0.0003868362057711138 0.9996374892495291
  outer loop
    vertex 9.230050781186536 9.292893218813449 10.196851492700615
    vertex 16.74750599774212 0.0 10.000000000000023
    vertex 9.388969403784428 9.499999999999995 10.192690062113384
  endloop
endfacet
facet normal 0.026921003782320697 -0.0003868362057711138 0.9996374892495291
  outer loop
    vertex 9.388969403784428 9.499999999999995 10.192690062113384
    vertex 16.74750599774212 0.0 10.000000000000023
    vertex 9.488869826289056 9.741180954897475 10.190074077484947
  endloop
endfacet
facet normal 0.026921003782320697 -0.0003868362057711138 0.9996374892495291
  outer loop
    vertex 9.488869826289056 9.741180954897475 10.190074077484947
    vertex 16.74750599774212 0.0 10.000000000000023
    vertex 9.522943999999988 9.999999999999995 10.18918181384462
  endloop
endfacet
facet normal 0.026921003782320697 -0.0003868362057711138 0.9996374892495291
  outer loop
    vertex 9.522943999999988 9.999999999999995 10.18918181384462
    vertex 16.74750599774212 0.0 10.000000000000023
    vertex 15.921799997742118 1.9999999999999991 10.000000000000034
  endloop
endfacet
facet normal 0.026921003782320697 -0.0003868362057711138 0.9996374892495291
  outer loop
    vertex 9.522943999999988 9.999999999999995 10.18918181384462
    vertex 15.921799997742118 1.9999999999999991 10.000000000000034
    vertex 15.814029930149873 14.196023569160053 10.024443931092712
  endloop
endfacet
facet normal 0.026921003782320697 -0.0003868362057711138 0.9996374892495291
  outer loop
    vertex 15.814029930149873 14.196023569160053 10.024443931092712
    vertex 15.921799997742118 1.9999999999999991 10.000000000000034
    vertex 15.908036445949291 6.067620677128233 10.01666882860589
  endloop
endfacet
facet normal 0.026921003782320697 -0.0003868362057711138 0.9996374892495291
  outer loop
    vertex 9.488869826289056 10.258819045102516 10.19007407748495
    vertex 15.814029930149873 14.196023569160053 10.024443931092712
    vertex 9.388969403784428 10.499999999999996 10.192690062113384
  endloop
endfacet
facet normal 0.026921003782320697 -0.0003868362057711138 0.9996374892495291
  outer loop
    vertex 15.814029930149873 14.196023569160053 10.024443931092712
    vertex 9.488869826289056 10.258819045102516 10.19007407748495
    vertex 9.522943999999988 9.999999999999995 10.18918181384462
  endloop
endfacet
facet normal -1.557993683628074e-28 -1.0 9.147816333066127e-14
  outer loop
    vertex 16.74750599774212 0.0 2.3460164698667356e-14
    vertex 0.7845909572783131 2.8199664825478975e-15 0.03082666266871083
    vertex 1.4099832412739487e-15 0.0 9.004328382841796e-16
  endloop
endfacet
facet normal -1.557993683628074e-28 -1.0 9.147816333066127e-14
  outer loop
    vertex 0.7845909572783131 2.8199664825478975e-15 0.03082666266871083
    vertex 16.74750599774212 0.0 2.3460164698667356e-14
    vertex 15.962915040463669 2.8199664825478975e-15 0.030826662668743263
  endloop
endfacet
facet normal -0.3401412048443297 -0.9403743726660397 -6.356858775029414e-17
  outer loop
    vertex 1.3984995463352985 17.494151122689438 10.03662099943489
    vertex 0.0 17.999999999999996 10.000000000000009
    vertex 0.0 17.999999999999996 9.000000000000009
  endloop
endfacet
facet normal 0.04720858523746683 0.9988850531867403 8.440483120559903e-18
  outer loop
    vertex 1.3984995463352985 13.933905122689438 10.03662099943489
    vertex 0.0 13.999999999999996 9.000000000000009
    vertex 0.0 13.999999999999996 10.000000000000009
  endloop
endfacet
endsolid Untitled-5e53f98a
